<svg width="117" height="105" viewBox="0 0 117 105" fill="none" xmlns="http://www.w3.org/2000/svg">
<path d="M117 52.6783C117 44.9562 107.313 37.6382 92.4615 33.1C95.8888 17.9886 94.3655 5.96599 87.6537 2.11687C86.1067 1.21398 84.2978 0.786302 82.3223 0.786302V6.0848C83.4172 6.0848 84.2978 6.29864 85.0356 6.70256C88.2725 8.55584 89.6768 15.6126 88.5819 24.6889C88.3201 26.9224 87.8917 29.2746 87.3681 31.6744C82.7031 30.5339 77.6098 29.6548 72.2546 29.0845C69.0415 24.6889 65.7094 20.6972 62.3535 17.2045C70.1126 10.0052 77.3956 6.06104 82.3461 6.06104V0.762543C75.8009 0.762543 67.2327 5.41952 58.5692 13.4979C49.9057 5.46704 41.3375 0.857583 34.7923 0.857583V6.15608C39.719 6.15608 47.0258 10.0765 54.7849 17.2283C51.4528 20.721 48.1207 24.6889 44.9552 29.0845C39.5762 29.6548 34.4828 30.5339 29.8179 31.6981C29.2705 29.3221 28.8659 27.0174 28.5803 24.8077C27.4616 15.7314 28.8421 8.67464 32.0552 6.7976C32.7692 6.36992 33.6974 6.17984 34.7923 6.17984V0.881343C32.793 0.881343 30.9841 1.30902 29.4133 2.21191C22.7253 6.06104 21.2258 18.0599 24.6769 33.1237C9.87288 37.6857 0.233582 44.98 0.233582 52.6783C0.233582 60.4003 9.92048 67.7184 24.7721 72.2566C21.3448 87.368 22.8681 99.3905 29.5799 103.24C31.1269 104.143 32.9358 104.57 34.9351 104.57C41.4803 104.57 50.0485 99.9133 58.712 91.8348C67.3755 99.8657 75.9437 104.475 82.4889 104.475C84.4882 104.475 86.2971 104.048 87.8679 103.145C94.5559 99.2955 96.0554 87.2967 92.6043 72.2328C107.361 67.6946 117 60.3765 117 52.6783ZM86.0114 36.8303C85.1308 39.8954 84.036 43.0554 82.7983 46.2155C81.8225 44.3147 80.7991 42.4139 79.6805 40.5131C78.5856 38.6123 77.4194 36.759 76.2532 34.9533C79.6329 35.4522 82.8935 36.07 86.0114 36.8303ZM75.1107 62.1348C73.2542 65.3424 71.3502 68.3837 69.3747 71.2111C65.8284 71.52 62.2345 71.6863 58.6168 71.6863C55.0229 71.6863 51.429 71.52 47.9065 71.2349C45.931 68.4074 44.0031 65.3899 42.1467 62.2061C40.3378 59.0935 38.6956 55.9334 37.1961 52.7495C38.6718 49.5657 40.3378 46.3819 42.1229 43.2693C43.9793 40.0617 45.8834 37.0204 47.8589 34.1929C51.4052 33.8841 54.9991 33.7177 58.6168 33.7177C62.2107 33.7177 65.8046 33.8841 69.3271 34.1692C71.3026 36.9966 73.2305 40.0142 75.0869 43.198C76.8958 46.3106 78.538 49.4707 80.0375 52.6545C78.538 55.8384 76.8958 59.0222 75.1107 62.1348ZM82.7983 59.046C84.0836 62.2298 85.1784 65.4137 86.0829 68.5025C82.965 69.2628 79.6805 69.9043 76.2769 70.4033C77.4432 68.5738 78.6094 66.6967 79.7043 64.7721C80.7991 62.8713 81.8225 60.9468 82.7983 59.046ZM58.6644 84.3979C56.4509 82.117 54.2375 79.5747 52.0478 76.7947C54.1899 76.8898 56.3795 76.9611 58.593 76.9611C60.8303 76.9611 63.0437 76.9135 65.2096 76.7947C63.0675 79.5747 60.8541 82.117 58.6644 84.3979ZM40.9566 70.4033C37.5769 69.9043 34.3162 69.2866 31.1983 68.5262C32.079 65.4612 33.1738 62.3011 34.4114 59.141C35.3873 61.0418 36.4107 62.9426 37.5293 64.8434C38.648 66.7442 39.7904 68.5975 40.9566 70.4033ZM58.5454 20.9586C60.7589 23.2396 62.9723 25.7819 65.162 28.5618C63.0199 28.4668 60.8303 28.3955 58.6168 28.3955C56.3795 28.3955 54.1661 28.443 52.0002 28.5618C54.1423 25.7819 56.3557 23.2396 58.5454 20.9586ZM40.9329 34.9533C39.7666 36.7828 38.6004 38.6598 37.5055 40.5844C36.4107 42.4852 35.3873 44.386 34.4114 46.2868C33.1262 43.103 32.0314 39.9191 31.1269 36.8303C34.2448 36.0938 37.5293 35.4522 40.9329 34.9533ZM19.3932 64.7009C10.9677 61.1131 5.51735 56.4086 5.51735 52.6783C5.51735 48.9479 10.9677 44.2197 19.3932 40.6557C21.44 39.7766 23.6773 38.9925 25.986 38.2559C27.3426 42.9129 29.1277 47.7599 31.3412 52.7258C29.1515 57.6679 27.3902 62.4912 26.0574 67.1244C23.7011 66.3878 21.4638 65.58 19.3932 64.7009ZM32.198 98.654C28.9611 96.8007 27.5568 89.744 28.6517 80.6676C28.9135 78.4342 29.3419 76.0819 29.8655 73.6822C34.5305 74.8226 39.6238 75.7018 44.979 76.272C48.1921 80.6676 51.5242 84.6593 54.8801 88.152C47.121 95.3513 39.838 99.2955 34.8875 99.2955C33.8164 99.2717 32.912 99.0579 32.198 98.654ZM88.6533 80.5488C89.772 89.6252 88.3915 96.6819 85.1784 98.5589C84.4644 98.9866 83.5362 99.1767 82.4413 99.1767C77.5146 99.1767 70.2078 95.2563 62.4487 88.1045C65.7808 84.6118 69.1129 80.6439 72.2784 76.2483C77.6574 75.678 82.7507 74.7989 87.4157 73.6346C87.9631 76.0344 88.3915 78.3391 88.6533 80.5488ZM97.8166 64.7009C95.7698 65.58 93.5325 66.3641 91.2238 67.1006C89.8672 62.4437 88.0821 57.5966 85.8686 52.6307C88.0583 47.6887 89.8196 42.8654 91.1524 38.2322C93.5087 38.9687 95.7459 39.7766 97.8404 40.6557C106.266 44.2434 111.716 48.9479 111.716 52.6783C111.692 56.4086 106.242 61.1369 97.8166 64.7009Z" fill="#61DAFB"/>
<path d="M58.593 63.5366C64.6002 63.5366 69.4699 58.6752 69.4699 52.6783C69.4699 46.6814 64.6002 41.8199 58.593 41.8199C52.5858 41.8199 47.7161 46.6814 47.7161 52.6783C47.7161 58.6752 52.5858 63.5366 58.593 63.5366Z" fill="#61DAFB"/>
</svg>
