<svg width="117" height="105" viewBox="0 0 117 105" fill="none" xmlns="http://www.w3.org/2000/svg"><path d="M117 52.678c0-7.722-9.687-15.04-24.538-19.578 3.427-15.111 1.903-27.134-4.808-30.983-1.547-.903-3.356-1.33-5.332-1.33v5.298c1.095 0 1.976.214 2.714.618 3.236 1.853 4.64 8.91 3.546 17.986-.262 2.233-.69 4.586-1.214 6.985-4.665-1.14-9.758-2.02-15.113-2.59-3.213-4.395-6.546-8.387-9.901-11.88 7.759-7.199 15.042-11.143 19.992-11.143V.763c-6.545 0-15.113 4.657-23.777 12.735C49.906 5.467 41.337.858 34.792.858v5.298c4.927 0 12.234 3.92 19.993 11.072a112.263 112.263 0 00-9.83 11.856c-5.379.57-10.472 1.45-15.137 2.614a71.57 71.57 0 01-1.238-6.89c-1.118-9.077.262-16.133 3.475-18.01.714-.428 1.642-.618 2.737-.618V.88c-1.999 0-3.808.428-5.379 1.33-6.688 3.85-8.187 15.849-4.736 30.913C9.873 37.686.234 44.98.234 52.678c0 7.722 9.686 15.04 24.538 19.579-3.427 15.111-1.904 27.133 4.808 30.983 1.547.903 3.356 1.33 5.355 1.33 6.545 0 15.113-4.657 23.777-12.735 8.663 8.03 17.232 12.64 23.777 12.64 2 0 3.808-.427 5.379-1.33 6.688-3.85 8.187-15.848 4.736-30.912C107.361 67.695 117 60.376 117 52.678zM86.011 36.83c-.88 3.065-1.975 6.225-3.213 9.386a111.47 111.47 0 00-3.118-5.703c-1.094-1.9-2.26-3.754-3.427-5.56 3.38.5 6.64 1.117 9.758 1.877zm-10.9 25.305c-1.857 3.207-3.76 6.249-5.736 9.076-3.547.309-7.14.475-10.758.475-3.594 0-7.188-.166-10.71-.451a130.934 130.934 0 01-5.76-9.029 123.69 123.69 0 01-4.95-9.457 123.842 123.842 0 014.926-9.48c1.856-3.207 3.76-6.249 5.736-9.076 3.546-.309 7.14-.475 10.758-.475 3.594 0 7.188.166 10.71.451a130.91 130.91 0 015.76 9.029 123.707 123.707 0 014.95 9.456 132.952 132.952 0 01-4.926 9.48zm7.687-3.089a101.709 101.709 0 013.285 9.456c-3.118.76-6.403 1.402-9.806 1.901 1.166-1.83 2.332-3.706 3.427-5.63a134.395 134.395 0 003.094-5.727zM58.664 84.398a97.946 97.946 0 01-6.616-7.603c2.142.095 4.331.166 6.545.166 2.237 0 4.45-.047 6.617-.166a92.762 92.762 0 01-6.546 7.603zM40.957 70.403c-3.38-.499-6.64-1.116-9.759-1.877.881-3.065 1.976-6.225 3.213-9.385.976 1.9 2 3.802 3.118 5.702a156.781 156.781 0 003.428 5.56zM58.545 20.96c2.214 2.28 4.427 4.823 6.617 7.603a147.65 147.65 0 00-6.545-.167c-2.237 0-4.45.048-6.617.167a92.796 92.796 0 016.545-7.603zM40.933 34.953c-1.166 1.83-2.333 3.707-3.428 5.631a134.266 134.266 0 00-3.094 5.703 101.737 101.737 0 01-3.284-9.457 115.76 115.76 0 019.806-1.877zm-21.54 29.748c-8.425-3.588-13.876-8.292-13.876-12.023 0-3.73 5.45-8.458 13.876-12.022 2.047-.88 4.284-1.663 6.593-2.4 1.357 4.657 3.142 9.504 5.355 14.47-2.19 4.942-3.95 9.765-5.284 14.398a72.39 72.39 0 01-6.664-2.423zm12.805 33.953c-3.237-1.853-4.641-8.91-3.546-17.986.261-2.234.69-4.586 1.213-6.986 4.666 1.14 9.759 2.02 15.114 2.59 3.213 4.396 6.545 8.387 9.901 11.88-7.759 7.2-15.042 11.144-19.992 11.144-1.072-.024-1.976-.238-2.69-.642zm56.455-18.105c1.119 9.076-.262 16.133-3.475 18.01-.714.428-1.642.618-2.737.618-4.926 0-12.233-3.92-19.992-11.073a112.263 112.263 0 009.83-11.856c5.378-.57 10.472-1.45 15.137-2.613.547 2.4.975 4.704 1.237 6.914zM97.817 64.7c-2.047.879-4.284 1.663-6.593 2.4-1.357-4.657-3.142-9.504-5.355-14.47 2.19-4.942 3.95-9.766 5.283-14.399a75.56 75.56 0 016.688 2.424c8.426 3.587 13.876 8.292 13.876 12.022-.024 3.73-5.474 8.459-13.9 12.023z" fill="#61DAFB"/><path d="M58.593 63.537c6.007 0 10.877-4.862 10.877-10.859S64.6 41.82 58.593 41.82c-6.007 0-10.877 4.861-10.877 10.858 0 5.997 4.87 10.859 10.877 10.859z" fill="#61DAFB"/></svg>